<?xml version="1.0" encoding="UTF-8" standalone="no"?>
<svg
   xmlns:dc="http://purl.org/dc/elements/1.1/"
   xmlns:cc="http://creativecommons.org/ns#"
   xmlns:rdf="http://www.w3.org/1999/02/22-rdf-syntax-ns#"
   xmlns:svg="http://www.w3.org/2000/svg"
   xmlns="http://www.w3.org/2000/svg"
   stroke="currentColor"
   fill="currentColor"
   stroke-width="0"
   version="1"
   viewBox="0 0 48 48"
   enable-background="new 0 0 48 48"
   height="1em"
   width="1em"
   id="svg44">
  <metadata
     id="metadata50">
    <rdf:RDF>
      <cc:Work
         rdf:about="">
        <dc:format>image/svg+xml</dc:format>
        <dc:type
           rdf:resource="http://purl.org/dc/dcmitype/StillImage" />
        <dc:title></dc:title>
      </cc:Work>
    </rdf:RDF>
  </metadata>
  <defs
     id="defs48" />
  <path
     fill="#CFD8DC"
     d="M5,38V14h38v24c0,2.2-1.8,4-4,4H9C6.8,42,5,40.2,5,38z"
     id="path2" />
  <path
     fill="#F44336"
     d="M43,10v6H5v-6c0-2.2,1.8-4,4-4h30C41.2,6,43,7.8,43,10z"
     id="path4" />
  <g
     fill="#B71C1C"
     id="g10">
    <circle
       cx="33"
       cy="10"
       r="3"
       id="circle6" />
    <circle
       cx="15"
       cy="10"
       r="3"
       id="circle8" />
  </g>
  <g
     fill="#B0BEC5"
     id="g16">
    <path
       d="M33,3c-1.1,0-2,0.9-2,2v5c0,1.1,0.9,2,2,2s2-0.9,2-2V5C35,3.9,34.1,3,33,3z"
       id="path12" />
    <path
       d="M15,3c-1.1,0-2,0.9-2,2v5c0,1.1,0.9,2,2,2s2-0.9,2-2V5C17,3.9,16.1,3,15,3z"
       id="path14" />
  </g>
  <g
     fill="#90A4AE"
     id="g42">
    <rect
       x="13"
       y="20"
       width="4"
       height="4"
       id="rect18" />
    <rect
       x="19"
       y="20"
       width="4"
       height="4"
       id="rect20" />
    <rect
       x="25"
       y="20"
       width="4"
       height="4"
       id="rect22" />
    <rect
       x="31"
       y="20"
       width="4"
       height="4"
       id="rect24" />
    <rect
       x="13"
       y="26"
       width="4"
       height="4"
       id="rect26" />
    <rect
       x="19"
       y="26"
       width="4"
       height="4"
       id="rect28" />
    <rect
       x="25"
       y="26"
       width="4"
       height="4"
       id="rect30" />
    <rect
       x="31"
       y="26"
       width="4"
       height="4"
       id="rect32" />
    <rect
       x="13"
       y="32"
       width="4"
       height="4"
       id="rect34" />
    <rect
       x="19"
       y="32"
       width="4"
       height="4"
       id="rect36" />
    <rect
       x="25"
       y="32"
       width="4"
       height="4"
       id="rect38" />
    <rect
       x="31"
       y="32"
       width="4"
       height="4"
       id="rect40" />
  </g>
</svg>
